Motion_pl04
version=1
nRows=13
nColumns=43
inDegrees=yes
endheader
time	pelvis_tilt	pelvis_list	pelvis_rotation	pelvis_tx	pelvis_ty	pelvis_tz	hip_flexion_r	hip_adduction_r	hip_rotation_r	knee_angle_r	ankle_angle_r	subtalar_angle_r	mtp_angle_r	hip_flexion_l	hip_adduction_l	hip_rotation_l	knee_angle_l	ankle_angle_l	subtalar_angle_l	mtp_angle_l	lumbar_extension	lumbar_bending	lumbar_rotation	neck_flexion	neck_lateral_bending	neck_rotation	arm_flex_r	arm_add_r	arm_rot_r	elbow_flex_r	pro_sup_r	wrist_flex_r	wrist_dev_r	hand_finger_flex_r	arm_flex_l	arm_add_l	arm_rot_l	elbow_flex_l	pro_sup_l	wrist_flex_l	wrist_dev_l	hand_finger_flex_l
      3.91750000	     -1.12913074	    -15.51824096	     88.67416818	     -0.00419182	      0.50714691	      0.38344490	     95.40084411	    -10.11001557	      3.05816441	   -121.07079597	      4.21687815	     31.02946433	     35.46535315	     92.74113939	    -15.31568303	      2.80276242	   -123.44950319	     15.99418706	     12.33667508	     37.23472132	    -36.32858798	     -6.01068441	     -1.07845283	      8.30767888	      8.26042246	     -1.41991550	    131.81000366	    -11.75857628	     37.84018099	     25.18047760	    131.67281016	      9.07844280	    -13.09130635	    -44.14276335	    142.15725836	    -10.96177986	     63.23458948	     27.18409658	    126.57049522	     -5.98461753	     -8.85046354	    -31.60506722
      3.92000000	     -1.13233362	    -15.68595758	     88.60820134	     -0.00413614	      0.50862360	      0.38372402	     95.36995537	    -10.02074345	      2.99421587	   -120.75162357	      4.27126944	     31.05895167	     35.47015025	     92.60923880	    -15.20997103	      2.78964282	   -122.97735675	     15.92692028	     12.31715379	     37.20699240	    -36.23003595	     -6.05528695	     -1.02357883	      8.32661449	      8.25203528	     -1.40858180	    131.69563489	    -11.74833998	     37.85067356	     25.11466110	    131.67154681	      9.11505613	    -13.05947330	    -44.14303530	    142.04167272	    -10.96076776	     63.24883955	     27.18711722	    126.57839995	     -5.95653149	     -8.83606536	    -31.59475519
      3.92250000	     -1.14093053	    -15.70751862	     88.60115897	     -0.00414802	      0.50869083	      0.38370696	     95.36341114	    -10.02464317	      2.99084156	   -120.74337467	      4.27334600	     31.05937224	     35.47029181	     92.61215550	    -15.21145609	      2.79179445	   -122.97344632	     15.92625687	     12.31612789	     37.20633843	    -36.24375475	     -6.05542485	     -1.02546762	      8.32586741	      8.25175088	     -1.40836087	    131.69197601	    -11.75523674	     37.84998309	     25.11008780	    131.67159124	      9.11589650	    -13.05778078	    -44.14315390	    142.03353084	    -10.96602567	     63.24993254	     27.18412947	    126.57881201	     -5.95518731	     -8.83520384	    -31.59436581
      3.92500000	     -1.17295308	    -15.76064627	     88.57288293	     -0.00416453	      0.50949816	      0.38395386	     95.32905843	    -10.04766952	      2.96829897	   -120.56851378	      4.29345954	     31.07204398	     35.47129294	     92.63528869	    -15.20629038	      2.79750502	   -122.91574774	     15.92027236	     12.31095018	     37.20147839	    -36.25829837	     -6.09793245	     -1.03078200	      8.32630741	      8.24681296	     -1.40657985	    131.67085690	    -11.80188159	     37.84566652	     25.07876864	    131.67208560	      9.12286291	    -13.04604524	    -44.14368307	    141.98370473	    -11.01729567	     63.25639794	     27.15893168	    126.58202435	     -5.94519774	     -8.82903574	    -31.59160808
      3.92750000	     -1.17571708	    -15.78441397	     88.56072997	     -0.00421217	      0.50953346	      0.38389715	     95.31944591	    -10.04556868	      2.96466552	   -120.56152894	      4.29585041	     31.07244569	     35.47143026	     92.63359513	    -15.20244171	      2.79478708	   -122.90160129	     15.91850389	     12.31077477	     37.20074217	    -36.26581468	     -6.09359969	     -1.03267755	      8.32611382	      8.24634978	     -1.40636841	    131.66467478	    -11.80498541	     37.84607976	     25.07493715	    131.67223199	      9.12427556	    -13.04483836	    -44.14362359	    141.97771974	    -11.01601905	     63.25779325	     27.16020144	    126.58251315	     -5.94409323	     -8.82940687	    -31.59132789
      3.93000000	     -1.15779794	    -15.95561026	     88.52041890	     -0.00406675	      0.51112635	      0.38416383	     95.26090504	     -9.94840442	      2.86968444	   -120.22224046	      4.33598498	     31.07858729	     35.47617379	     92.48653956	    -15.13772076	      2.73599036	   -122.37099085	     15.85066317	     12.29676303	     37.17460745	    -36.15889845	     -6.12591535	     -0.98243476	      8.32290292	      8.23965064	     -1.39819360	    131.52835624	    -11.81888599	     37.85711430	     25.02314336	    131.67258130	      9.16469771	    -13.02161285	    -44.14438540	    141.85131386	    -11.02232333	     63.28516002	     27.21022858	    126.59912103	     -5.91629023	     -8.84465263	    -31.58561246
      3.93250000	     -1.15965210	    -15.96087947	     88.51933516	     -0.00410575	      0.51108965	      0.38422892	     95.25848260	     -9.94865817	      2.86886206	   -120.22225462	      4.33633273	     31.07847705	     35.47619068	     92.48668540	    -15.13802008	      2.73622761	   -122.37048882	     15.85058764	     12.29663048	     37.17453708	    -36.16143477	     -6.12580819	     -0.98264580	      8.32270588	      8.23964681	     -1.39818516	    131.52766485	    -11.81989850	     37.85704929	     25.02255114	    131.67259919	      9.16483004	    -13.02141687	    -44.14439637	    141.85007880	    -11.02315504	     63.28537927	     27.20987938	    126.59921098	     -5.91608934	     -8.84462774	    -31.58556858
      3.93500000	     -1.19395849	    -16.02719550	     88.50088838	     -0.00405650	      0.51193487	      0.38437173	     95.21669344	     -9.95747129	      2.84277768	   -120.05380421	      4.35151743	     31.08364280	     35.47712048	     92.50442975	    -15.13800114	      2.73724556	   -122.31805258	     15.84648944	     12.29095934	     37.17053211	    -36.17640879	     -6.15882416	     -0.98930058	      8.31882671	      8.23653774	     -1.39783389	    131.50661562	    -11.88044199	     37.85142414	     24.99182043	    131.67355441	      9.17196093	    -13.00994939	    -44.14494291	    141.79680602	    -11.08753501	     63.29435639	     27.18479533	    126.60426155	     -5.90480552	     -8.84273690	    -31.58302102
      3.93750000	     -1.16405737	    -16.16612644	     88.47195565	     -0.00391527	      0.51302813	      0.38441860	     95.15727987	     -9.87336683	      2.75479409	   -119.81968537	      4.35648952	     31.03537643	     35.48273889	     92.37470042	    -15.12116686	      2.68724526	   -121.86797631	     15.78911898	     12.26221157	     37.14376317	    -36.07305904	     -6.17593864	     -0.94183805	      8.27669942	      8.23977669	     -1.39755467	    131.38271214	    -11.90714426	     37.85314818	     24.97971315	    131.67300714	      9.21283551	    -12.98995575	    -44.14916767	    141.68004577	    -11.10505244	     63.32124760	     27.27865973	    126.62857064	     -5.87798514	     -8.88151740	    -31.57973771
      3.94000000	     -1.16600632	    -16.17135211	     88.47094030	     -0.00395191	      0.51300690	      0.38448246	     95.15534186	     -9.87326040	      2.75388563	   -119.81901982	      4.35676218	     31.03518738	     35.48275644	     92.37479135	    -15.12127669	      2.68737363	   -121.86814696	     15.78907660	     12.26208010	     37.14370324	    -36.07590478	     -6.17554334	     -0.94207025	      8.27644403	      8.23978809	     -1.39757478	    131.38175087	    -11.90807931	     37.85314007	     24.97915873	    131.67303858	      9.21301012	    -12.98977216	    -44.14917088	    141.67886053	    -11.10572978	     63.32148242	     27.27846870	    126.62867554	     -5.87778307	     -8.88156376	    -31.57969470
      3.94250000	     -1.16939456	    -16.31013696	     88.43160020	     -0.00384335	      0.51446020	      0.38460807	     95.07206228	     -9.80756390	      2.69081035	   -119.51369939	      4.35052524	     30.96922297	     35.48875477	     92.31062095	    -15.08358976	      2.65365517	   -121.59847559	     15.74951408	     12.22629085	     37.11828506	    -36.02317574	     -6.20860467	     -0.90617273	      8.21638198	      8.24705677	     -1.40485540	    131.26377702	    -11.96033724	     37.84685793	     24.98481903	    131.67349633	      9.25196037	    -12.96853864	    -44.15565566	    141.57429171	    -11.17863956	     63.33987150	     27.35929110	    126.65467430	     -5.85158956	     -8.92032852	    -31.57656512
      3.94500000	     -1.17087459	    -16.31481823	     88.43008017	     -0.00387120	      0.51444377	      0.38467539	     95.07015022	     -9.80767006	      2.69017029	   -119.51326646	      4.35075539	     30.96901006	     35.48877207	     92.31070058	    -15.08368481	      2.65387117	   -121.59852600	     15.74948235	     12.22614629	     37.11822251	    -36.02557273	     -6.20806586	     -0.90674595	      8.21615230	      8.24705700	     -1.40489265	    131.26314950	    -11.96156084	     37.84675425	     24.98429683	    131.67352703	      9.25208672	    -12.96833148	    -44.15567276	    141.57301241	    -11.17943345	     63.34011928	     27.35903608	    126.65478035	     -5.85137535	     -8.92036599	    -31.57651644
      3.94750000	     -1.17358007	    -16.43460616	     88.37834400	     -0.00389389	      0.51583736	      0.38485251	     94.99248146	     -9.75374874	      2.64668734	   -119.21475641	      4.34338428	     30.91008890	     35.49391470	     92.25313777	    -15.01640693	      2.63379826	   -121.36884617	     15.71800684	     12.19186706	     37.09561991	    -35.99322957	     -6.23972082	     -0.89008684	      8.17188413	      8.25028156	     -1.41485155	    131.15414000	    -12.01089153	     37.84180667	     24.99622394	    131.67624106	      9.28548337	    -12.95079557	    -44.16146684	    141.47311428	    -11.25938587	     63.35754000	     27.42180815	    126.67649269	     -5.82700101	     -8.95186574	    -31.57255119
